<svg width="900" height="250" viewBox="0 0 900 250" xmlns="http://www.w3.org/2000/svg" fill="none">
  <defs>
    <linearGradient id="orangeGradient" x1="0%" y1="0%" x2="100%" y2="0%">
      <stop offset="0%" style="stop-color:#FF7043; stop-opacity:1" />
      <stop offset="100%" style="stop-color:#FFA726; stop-opacity:1" />
    </linearGradient>
    <linearGradient id="purpleGradient" x1="0%" y1="0%" x2="100%" y2="0%">
      <stop offset="0%" style="stop-color:#7E57C2; stop-opacity:1" />
      <stop offset="100%" style="stop-color:#9575CD; stop-opacity:1" />
    </linearGradient>
    <linearGradient id="blueGradient" x1="0%" y1="0%" x2="100%" y2="0%">
      <stop offset="0%" style="stop-color:#42A5F5; stop-opacity:1" />
      <stop offset="100%" style="stop-color:#64B5F6; stop-opacity:1" />
    </linearGradient>
  </defs>

  <!-- Stripes -->
  <rect x="10" y="30" width="50" height="190" rx="10" ry="10" fill="url(#orangeGradient)" />
  <rect x="80" y="20" width="60" height="210" rx="15" ry="15" fill="url(#orangeGradient)" />
  <rect x="160" y="40" width="70" height="170" rx="12" ry="12" fill="url(#orangeGradient)" />
  <rect x="250" y="50" width="80" height="150" rx="10" ry="10" fill="url(#orangeGradient)" />
  <rect x="350" y="25" width="90" height="200" rx="18" ry="18" fill="url(#orangeGradient)" />
  <rect x="460" y="60" width="70" height="130" rx="10" ry="10" fill="url(#orangeGradient)" />
  <rect x="550" y="20" width="100" height="210" rx="15" ry="15" fill="url(#orangeGradient)" />
  <rect x="670" y="50" width="90" height="150" rx="12" ry="12" fill="url(#orangeGradient)" />
  <rect x="780" y="30" width="60" height="190" rx="10" ry="10" fill="url(#orangeGradient)" />
</svg>
